<?xml version="1.0" encoding="UTF-8"?>
<!-- Generator: Adobe Illustrator 19.1.0, SVG Export Plug-In . SVG Version: 6.00 Build 0)  -->
<svg version="1.1" id="Ebene_1" xmlns="http://www.w3.org/2000/svg" xmlns:xlink="http://www.w3.org/1999/xlink" x="0px" y="0px" viewBox="272 -184.5 841.9 476.8" style="enable-background:new 272 -184.5 841.9 476.8;" xml:space="preserve">
<style type="text/css">
	.st0{fill:#F05859;}
	.st1{fill:#FFFFFF;}
	.st2{fill:#902E38;}
</style>
<rect x="272" y="-184.5" class="st0" width="842.1" height="476.8"/>
<g>
	<path class="st1" d="M773.2,38.5c0-10.5,0-20.8,0-31.5c3.1,0,6,0,9.3,0c0,0.9,0,2,0,3.1c0,17.9,0,35.7,0,53.6   c0,18.9-12.9,34.5-31.5,38c-20.9,3.9-41.3-11.5-44.1-32.5c-2.7-19.3,10.7-39.9,33.1-42.7c12.3-1.5,23.1,2.4,31.9,11.2   c0.3,0.3,0.5,0.5,0.8,0.8C772.5,38.5,772.6,38.4,773.2,38.5z M744.8,34.8c-16-0.1-28.8,12.5-28.9,28.5c-0.1,16.8,12.1,30,27.9,30.1   c16.5,0.1,28.7-12,29.5-27.7C774.1,47.7,760.6,34.8,744.8,34.8z"/>
	<path class="st1" d="M476.4,64.1c0,21.1-16.9,38.1-38,38c-20.5-0.1-38-15.9-38-38c0-22.7,18.4-38.1,38-38   C459.6,26.3,476.4,43.1,476.4,64.1z M438.4,34.8c-16.4,0.1-28.9,13.1-28.7,29.6c0.1,16.7,12.9,29.2,29.3,29.1   c16-0.1,28.1-13.2,28-30C466.9,47.2,454.4,34.7,438.4,34.8z"/>
	<path class="st1" d="M812.2,64c-0.5-20,16.5-37.9,37.7-37.9c19.5,0,38,15.2,38.1,38c0,21.7-17.3,38-38,38   C827.8,102.1,811.6,83.3,812.2,64z M878.6,64.1c0-16.8-12.3-29.3-28.5-29.3c-16.3,0-28.7,12.5-28.7,29.3   c0,16.7,12.5,29.5,28.9,29.5C866.4,93.5,878.8,80.7,878.6,64.1z"/>
	<path class="st1" d="M688.5,28.1c3.3,0,6.3,0,9.5,0c0,1.1,0,2,0,2.9c0,13.7,0,27.5,0,41.3c0,14.3-7.5,24.9-20,28.5   c-15.9,4.5-33.5-2.7-37.3-20.9c-0.4-2-0.8-4-0.8-6c-0.1-14.8,0-29.5,0-44.1c0-0.4,0.1-0.9,0.1-1.6c3.1,0,5.9,0,9.2,0   c0,1.1,0,2.1,0,3.1c0,12.9-0.1,26,0.1,38.9c0.1,3.9,0.7,8,2,11.7c2.9,8.1,10.7,12.4,19.5,11.7c8.7-0.7,15.1-6.1,17.1-14.7   c0.5-2.5,0.8-5.2,0.8-7.9c0.1-13.2,0-26.4,0-39.5C688.5,30.5,688.5,29.5,688.5,28.1z"/>
	<path class="st1" d="M494.7,100.4c-2.7,0-5.1,0-7.5,0c-2,0-1.6-1.5-1.7-2.7c0-8.5,0-16.9,0-25.5c0-7.1-0.1-14,0.4-21.1   c0.9-13.9,12.7-24.4,26.5-25.1c15.6-0.7,25.7,7.9,29.2,18.1c1.1,3.3,2,7.1,2,10.5c0.3,14.7,0.1,29.2,0.1,43.9   c0,0.4-0.1,0.8-0.1,1.3c-2.9,0-6,0-9.2,0c0-1.2,0-2.3,0-3.2c0-13.2,0-26.5,0-39.7c0-5.5-1.1-10.7-4.4-15.1   c-5.1-6.8-12.1-8.1-19.9-6.8c-7.6,1.3-12.3,6.4-14.1,13.9c-0.8,3.1-1.1,6.3-1.2,9.5c-0.1,12.8,0,25.6,0,38.4   C494.7,98,494.7,98.9,494.7,100.4z"/>
	<path class="st1" d="M894.2,98v-9.3c4.5,2.7,9.1,4,14,4.8c3.2,0.5,6.9,0.3,10.3-0.5c4.8-1.1,8.3-4.3,9.3-9.5c1.1-5.5-1.7-10-6-12.7   c-4-2.4-8.3-3.7-12.4-6c-2.3-1.3-6.5-2.9-10.8-6.7c-7.6-6.7-7.2-21.3,2.1-27.7c10.4-6.9,20.8-4.9,24.7-4.1c6.9,1.5,9.2,3.1,9.2,3.1   v8.1c-6-2.5-11.1-3.2-16.7-3.5c-3.9-0.3-7.9,0.5-11.2,2.7c-4.5,2.8-5.9,10.8-1.7,14.7c2.5,2.4,5.7,4.3,8.9,5.7   c5.1,2.3,9.7,4.4,14.3,7.2c7.5,4.7,10.4,12.3,8.8,20.8c-1.3,8-6.5,13.1-14.1,15.5c-8.9,2.8-18,1.9-26.7-1.6"/>
	<path class="st1" d="M581.6,26c-7.7-1.1-15.2-0.5-22,4.1c-9.2,6.1-11.2,19.2-3.9,27.1c3.3,3.5,7.5,5.7,12,7.7   c5.3,2.3,9.1,4.4,13.3,6.9c4.3,2.5,5.6,6.9,4.8,11.7c-0.7,4.5-3.6,7.9-8,9.2c-2.1,0.7-4.4,0.9-6.8,0.9c-6.4,0.3-12.4-1.9-18.7-5.1   v9.5l1.6,0.8c9.3,4,18.7,4.7,28.3,1.3c14.7-5.1,17.3-25.6,6-34.1c-3.7-2.8-7.9-4.9-12.4-7.1c-4.5-1.9-7.9-3.5-11.3-6.1   c-6.1-4.5-5.2-14.1,1.7-17.1c3.1-1.2,6.7-1.7,9.9-1.6c5.7,0.1,10.9,1.2,16.4,3.5v-8.3C592.6,29.5,587.2,26.7,581.6,26z"/>
	<path class="st1" d="M629.7,92c0,2.9,0,6,0,8.5c-13.6,0.8-23.3-4-24-17.3c-0.3-6.7-0.3-13.2-0.4-19.9c0-17.6,0-35.1,0-52.7   c0-1.2,0-2.3,0-3.6c3.2,0,6.1,0,9.5,0c0,6.9,0,13.7,0,20.9c5.2,0,9.9,0,14.8,0c0,2.9,0,5.6,0,8.7c-4.9,0-9.6,0-14.5,0   c-0.1,0.9-0.1,1.6-0.1,2.3c0,14,0,27.9,0,41.9c0,5.6,2,9.1,5.9,10.4c1.6,0.5,3.3,0.8,4.9,0.8C626.9,92,628.2,92,629.7,92z"/>
	<path class="st1" d="M372.8,7.1c3.2,0,6.1,0,9.2,0c0,6.9,0,13.6,0,20.8c5.1,0,9.9,0,15.1,0l0,0c0,0,0,8.1,0,8.7l0,0h-2.4   c0,0-8.1,0-12.7,0c0,1.2,0,2.3,0,3.2c0,13.3,0,26.7,0,40.1c0,8.4,2.9,12,11.5,12.1c0.8,0,2.3,0,3.3,0c0,2.8,0,6,0,8.7   c-15.1,0.8-23.7-5.3-24-18C372.5,57.5,372.8,32.4,372.8,7.1z"/>
	<path class="st1" d="M802.2,100.3c-2.9,0-5.9,0-8.9,0c0-24,0-47.9,0-72c2.9,0,5.9,0,8.9,0C802.2,52.1,802.2,76.1,802.2,100.3z"/>
	<path class="st1" d="M791.8,12.8c0-3.3,2.5-5.9,5.9-5.9s5.9,2.7,5.9,5.9c0,2.9-2.8,5.7-5.7,5.9C794.6,18.7,791.8,16,791.8,12.8z"/>
</g>
<path class="st1" d="M688.5,28.1c3.3,0,6.3,0,9.5,0c0,1.1,0,2,0,2.9c0,13.7,0,27.5,0,41.3c0,14.3-7.5,24.9-20,28.5  c-15.9,4.5-33.5-2.7-37.3-20.9c-0.4-2-0.8-4-0.8-6c-0.1-14.8,0-29.5,0-44.1c0-0.4,0.1-0.9,0.1-1.6c3.1,0,5.9,0,9.2,0  c0,1.1,0,2.1,0,3.1c0,12.9-0.1,26,0.1,38.9c0.1,3.9,0.7,8,2,11.7c2.9,8.1,10.7,12.4,19.5,11.7c8.7-0.7,15.1-6.1,17.1-14.7  c0.5-2.5,0.8-5.2,0.8-7.9c0.1-13.2,0-26.4,0-39.5C688.5,30.5,688.5,29.5,688.5,28.1z"/>
<path class="st1" d="M894.2,98v-9.3c4.5,2.7,9.1,4,14,4.8c3.2,0.5,6.9,0.3,10.3-0.5c4.8-1.1,8.3-4.3,9.3-9.5c1.1-5.5-1.7-10-6-12.7  c-4-2.4-8.3-3.7-12.4-6c-2.3-1.3-6.5-2.9-10.8-6.7c-7.6-6.7-7.2-21.3,2.1-27.7c10.4-6.9,20.8-4.9,24.7-4.1c6.9,1.5,9.2,3.1,9.2,3.1  v8.1c-6-2.5-11.1-3.2-16.7-3.5c-3.9-0.3-7.9,0.5-11.2,2.7c-4.5,2.8-5.9,10.8-1.7,14.7c2.5,2.4,5.7,4.3,8.9,5.7  c5.1,2.3,9.7,4.4,14.3,7.2c7.5,4.7,10.4,12.3,8.8,20.8c-1.3,8-6.5,13.1-14.1,15.5c-8.9,2.8-18,1.9-26.7-1.6"/>
<path class="st2" d="M1003.4,92.7c-7.7,0-15.6,0-23.5,0c-7.7,0-15.5,0-23.3,0c0.7-0.8,1.2-1.5,1.6-2c0.4-0.5,0.7-0.9,1.1-1.3  l42.4-52.7l0.1-0.1v-8.8h-0.4c-8.8,0-17.9,0-26.8,0c-9.1,0-18.1,0-27.1,0h-0.4v0.4c0,1.5,0,2.7,0,4c0,1.3,0,2.7,0,4.1v0.4h0.4  c6.9,0,14,0,21.2,0c6.9,0,13.9,0,20.8,0c-0.5,0.8-1.2,1.6-1.6,2.1l-42.4,53.9l-0.1,0.1v8.8h58.4v-9.1h-0.4V92.7z"/>
</svg>